# MagicaVoxel @ Ephtracy

# group
o 

# material
mtllib 210430cow.mtl
usemtl palette

# normals
vn -1 0 0
vn 1 0 0
vn 0 0 1
vn 0 0 -1
vn 0 -1 0
vn 0 1 0

# texcoords
vt 0.150391 0.5
vt 0.248047 0.5
vt 0.330078 0.5
vt 0.341797 0.5
vt 0.958984 0.5
vt 0.990234 0.5

# verts
v -0.7 0.5 0.2
v -0.7 0.5 0.1
v -0.7 0.5 -0.2
v -0.7 0.5 -0.3
v -0.7 0.6 -2.98023e-08
v -0.7 0.6 -0.1
v -0.7 0.7 0.1
v -0.7 0.7 -2.98023e-08
v -0.7 0.7 -0.1
v -0.7 0.7 -0.2
v -0.7 0.8 0.2
v -0.7 0.8 -0.3
v -0.6 0.8 0.2
v -0.6 0.8 -0.1
v -0.6 0.8 -0.3
v -0.6 0.9 0.2
v -0.6 0.9 -0.1
v -0.6 0.9 -0.3
v -0.4 0.7 0.3
v -0.4 0.7 0.2
v -0.4 0.7 -0.3
v -0.4 0.7 -0.4
v -0.4 0.8 0.2
v -0.4 0.9 0.2
v -0.4 0.9 -2.98023e-08
v -0.4 0.9 -0.1
v -0.4 0.9 -0.3
v -0.4 1 0.3
v -0.4 1 0.2
v -0.4 1 0.1
v -0.4 1 -2.98023e-08
v -0.4 1 -0.1
v -0.4 1 -0.2
v -0.4 1 -0.3
v -0.4 1 -0.4
v -0.4 1.1 0.2
v -0.4 1.1 0.1
v -0.4 1.1 -0.2
v -0.4 1.1 -0.3
v -0.3 0.1 0.3
v -0.3 0.1 0.2
v -0.3 0.1 -0.3
v -0.3 0.1 -0.4
v -0.3 0.2 0.3
v -0.3 0.2 0.2
v -0.3 0.2 -0.3
v -0.3 0.2 -0.4
v -0.3 0.3 0.2
v -0.3 0.3 -0.3
v -0.3 0.4 0.2
v -0.3 0.4 -0.3
v -0.3 0.5 0.2
v -0.3 0.5 -0.3
v -0.3 0.7 0.3
v -0.3 0.7 0.2
v -0.3 0.7 -0.3
v -0.3 0.7 -0.4
v 0.3 0.1 0.3
v 0.3 0.1 0.2
v 0.3 0.1 -0.3
v 0.3 0.1 -0.4
v 0.3 0.2 0.3
v 0.3 0.2 0.2
v 0.3 0.2 -0.3
v 0.3 0.2 -0.4
v 0.3 0.3 0.3
v 0.3 0.3 0.2
v 0.3 0.3 -0.3
v 0.3 0.3 -0.4
v -0.3 0.9 0.3
v -0.3 0.9 0.2
v -0.3 0.9 -2.98023e-08
v -0.3 0.9 -0.1
v -0.3 0.9 -0.3
v -0.3 0.9 -0.4
v -0.3 1 0.3
v -0.3 1 0.2
v -0.3 1 0.1
v -0.3 1 -2.98023e-08
v -0.3 1 -0.1
v -0.3 1 -0.2
v -0.3 1 -0.3
v -0.3 1 -0.4
v -0.3 1.1 0.2
v -0.3 1.1 0.1
v -0.3 1.1 -0.2
v -0.3 1.1 -0.3
v -0.2 0.1 0.3
v -0.2 0.1 0.2
v -0.2 0.1 -0.3
v -0.2 0.1 -0.4
v -0.2 0.2 0.3
v -0.2 0.2 0.2
v -0.2 0.2 -0.3
v -0.2 0.2 -0.4
v -0.2 0.3 0.3
v -0.2 0.3 0.2
v -0.2 0.3 -0.3
v -0.2 0.3 -0.4
v 0.4 0.1 0.3
v 0.4 0.1 0.2
v 0.4 0.1 -0.3
v 0.4 0.1 -0.4
v 0.4 0.2 0.3
v 0.4 0.2 0.2
v 0.4 0.2 -0.3
v 0.4 0.2 -0.4
v 0.4 0.3 0.2
v 0.4 0.3 -0.3
v 0.4 0.4 0.2
v 0.4 0.4 -0.3
v 0.4 0.5 0.2
v 0.4 0.5 -0.3
v 0.4 0.9 0.3
v 0.4 0.9 0.2
v 0.4 0.9 -0.3
v 0.4 0.9 -0.4
v 0.5 0.5 0.2
v 0.5 0.5 -0.3
v 0.5 0.6 -2.98023e-08
v 0.5 0.6 -0.1
v 0.5 0.7 0.1
v 0.5 0.7 -2.98023e-08
v 0.5 0.7 -0.1
v 0.5 0.7 -0.2
v 0.5 0.9 0.2
v 0.5 0.9 0.1
v 0.5 0.9 -2.98023e-08
v 0.5 0.9 -0.1
v 0.5 0.9 -0.2
v 0.5 0.9 -0.3
v 0.6 0.6 -2.98023e-08
v 0.6 0.6 -0.1
v 0.6 0.9 -2.98023e-08
v 0.6 0.9 -0.1
v -0.4 0.7 0.3
v -0.4 1 0.3
v -0.3 0.1 0.3
v -0.3 0.2 0.3
v -0.3 0.7 0.3
v -0.3 0.9 0.3
v -0.3 1 0.3
v -0.2 0.1 0.3
v -0.2 0.2 0.3
v -0.2 0.3 0.3
v -0.2 0.4 0.3
v -0.2 0.6 0.3
v -0.2 0.9 0.3
v -0.1 0.6 0.3
v -0.1 0.7 0.3
v 0 0.7 0.3
v 0 0.8 0.3
v 0.1 0.7 0.3
v 0.1 0.8 0.3
v 0.2 0.6 0.3
v 0.2 0.7 0.3
v 0.3 0.1 0.3
v 0.3 0.2 0.3
v 0.3 0.3 0.3
v 0.3 0.4 0.3
v 0.3 0.6 0.3
v 0.3 0.9 0.3
v 0.4 0.1 0.3
v 0.4 0.2 0.3
v 0.4 0.9 0.3
v -0.7 0.5 0.2
v -0.7 0.8 0.2
v -0.6 0.8 0.2
v -0.6 0.9 0.2
v -0.5 0.7 0.2
v -0.5 0.8 0.2
v -0.4 0.7 0.2
v -0.4 0.8 0.2
v -0.4 0.9 0.2
v -0.4 1 0.2
v -0.4 1.1 0.2
v -0.3 0.5 0.2
v -0.3 0.7 0.2
v -0.3 1 0.2
v -0.3 1.1 0.2
v 0.4 0.5 0.2
v 0.4 0.9 0.2
v 0.5 0.5 0.2
v 0.5 0.9 0.2
v 0.5 0.6 -2.98023e-08
v 0.5 0.7 -2.98023e-08
v 0.5 0.9 -2.98023e-08
v 0.6 0.6 -2.98023e-08
v 0.6 0.9 -2.98023e-08
v -0.4 0.9 -0.1
v -0.4 1 -0.1
v -0.3 0.9 -0.1
v -0.3 1 -0.1
v -0.4 1 -0.2
v -0.4 1.1 -0.2
v -0.3 1 -0.2
v -0.3 1.1 -0.2
v -0.3 0.1 -0.3
v -0.3 0.2 -0.3
v -0.3 0.3 -0.3
v -0.2 0.1 -0.3
v -0.2 0.2 -0.3
v -0.2 0.3 -0.3
v 0.3 0.1 -0.3
v 0.3 0.2 -0.3
v 0.3 0.3 -0.3
v 0.4 0.1 -0.3
v 0.4 0.2 -0.3
v 0.4 0.3 -0.3
v -0.3 0.1 0.2
v -0.3 0.2 0.2
v -0.3 0.3 0.2
v -0.2 0.1 0.2
v -0.2 0.2 0.2
v -0.2 0.3 0.2
v 0.3 0.1 0.2
v 0.3 0.2 0.2
v 0.3 0.3 0.2
v 0.4 0.1 0.2
v 0.4 0.2 0.2
v 0.4 0.3 0.2
v -0.4 1 0.1
v -0.4 1.1 0.1
v -0.3 1 0.1
v -0.3 1.1 0.1
v -0.4 0.9 -2.98023e-08
v -0.4 1 -2.98023e-08
v -0.3 0.9 -2.98023e-08
v -0.3 1 -2.98023e-08
v 0.5 0.6 -0.1
v 0.5 0.7 -0.1
v 0.5 0.9 -0.1
v 0.6 0.6 -0.1
v 0.6 0.9 -0.1
v -0.7 0.5 -0.3
v -0.7 0.8 -0.3
v -0.6 0.8 -0.3
v -0.6 0.9 -0.3
v -0.5 0.7 -0.3
v -0.5 0.8 -0.3
v -0.4 0.7 -0.3
v -0.4 0.9 -0.3
v -0.4 1 -0.3
v -0.4 1.1 -0.3
v -0.3 0.5 -0.3
v -0.3 0.7 -0.3
v -0.3 1 -0.3
v -0.3 1.1 -0.3
v 0.4 0.5 -0.3
v 0.4 0.9 -0.3
v 0.5 0.5 -0.3
v 0.5 0.9 -0.3
v -0.4 0.7 -0.4
v -0.4 1 -0.4
v -0.3 0.1 -0.4
v -0.3 0.2 -0.4
v -0.3 0.7 -0.4
v -0.3 0.9 -0.4
v -0.3 1 -0.4
v -0.2 0.1 -0.4
v -0.2 0.2 -0.4
v -0.2 0.3 -0.4
v -0.2 0.4 -0.4
v -0.2 0.6 -0.4
v -0.2 0.7 -0.4
v -0.2 0.8 -0.4
v -0.2 0.9 -0.4
v -0.1 0.6 -0.4
v -0.1 0.7 -0.4
v -0.1 0.8 -0.4
v 0.2 0.6 -0.4
v 0.2 0.7 -0.4
v 0.3 0.1 -0.4
v 0.3 0.2 -0.4
v 0.3 0.3 -0.4
v 0.3 0.4 -0.4
v 0.3 0.6 -0.4
v 0.3 0.9 -0.4
v 0.4 0.1 -0.4
v 0.4 0.2 -0.4
v 0.4 0.9 -0.4
v -0.3 0.1 0.3
v -0.2 0.1 0.3
v 0.3 0.1 0.3
v 0.4 0.1 0.3
v -0.3 0.1 0.2
v -0.2 0.1 0.2
v 0.3 0.1 0.2
v 0.4 0.1 0.2
v -0.3 0.1 -0.3
v -0.2 0.1 -0.3
v 0.3 0.1 -0.3
v 0.4 0.1 -0.3
v -0.3 0.1 -0.4
v -0.2 0.1 -0.4
v 0.3 0.1 -0.4
v 0.4 0.1 -0.4
v -0.2 0.3 0.3
v 0.3 0.3 0.3
v -0.3 0.3 0.2
v -0.2 0.3 0.2
v 0.3 0.3 0.2
v 0.4 0.3 0.2
v -0.3 0.3 -0.3
v -0.2 0.3 -0.3
v 0.3 0.3 -0.3
v 0.4 0.3 -0.3
v -0.2 0.3 -0.4
v 0.3 0.3 -0.4
v -0.7 0.5 0.2
v -0.3 0.5 0.2
v 0.4 0.5 0.2
v 0.5 0.5 0.2
v -0.7 0.5 0.1
v -0.6 0.5 0.1
v -0.7 0.5 -0.2
v -0.6 0.5 -0.2
v -0.7 0.5 -0.3
v -0.3 0.5 -0.3
v 0.4 0.5 -0.3
v 0.5 0.5 -0.3
v 0.5 0.6 -2.98023e-08
v 0.6 0.6 -2.98023e-08
v 0.5 0.6 -0.1
v 0.6 0.6 -0.1
v -0.4 0.7 0.3
v -0.3 0.7 0.3
v -0.4 0.7 0.2
v -0.3 0.7 0.2
v -0.4 0.7 -0.3
v -0.3 0.7 -0.3
v -0.4 0.7 -0.4
v -0.3 0.7 -0.4
v -0.7 0.8 0.2
v -0.6 0.8 0.2
v -0.6 0.8 -0.1
v -0.7 0.8 -0.3
v -0.6 0.8 -0.3
v -0.3 0.9 0.3
v -0.2 0.9 0.3
v 0.3 0.9 0.3
v 0.4 0.9 0.3
v -0.6 0.9 0.2
v -0.4 0.9 0.2
v -0.3 0.9 0.2
v 0.4 0.9 0.2
v 0.5 0.9 0.2
v 0 0.9 0.1
v 0.3 0.9 0.1
v 0.4 0.9 0.1
v 0.5 0.9 0.1
v -0.5 0.9 -2.98023e-08
v -0.4 0.9 -2.98023e-08
v -0.3 0.9 -2.98023e-08
v -0.2 0.9 -2.98023e-08
v 0 0.9 -2.98023e-08
v 0.5 0.9 -2.98023e-08
v 0.6 0.9 -2.98023e-08
v -0.6 0.9 -0.1
v -0.5 0.9 -0.1
v -0.4 0.9 -0.1
v -0.3 0.9 -0.1
v 0.1 0.9 -0.1
v 0.3 0.9 -0.1
v 0.5 0.9 -0.1
v 0.6 0.9 -0.1
v -0.2 0.9 -0.2
v 0.1 0.9 -0.2
v 0.4 0.9 -0.2
v 0.5 0.9 -0.2
v -0.6 0.9 -0.3
v -0.4 0.9 -0.3
v -0.3 0.9 -0.3
v 0.4 0.9 -0.3
v 0.5 0.9 -0.3
v -0.3 0.9 -0.4
v -0.2 0.9 -0.4
v 0.3 0.9 -0.4
v 0.4 0.9 -0.4
v -0.4 1 0.3
v -0.3 1 0.3
v -0.4 1 0.2
v -0.3 1 0.2
v -0.4 1 0.1
v -0.3 1 0.1
v -0.4 1 -2.98023e-08
v -0.3 1 -2.98023e-08
v -0.4 1 -0.1
v -0.3 1 -0.1
v -0.4 1 -0.2
v -0.3 1 -0.2
v -0.4 1 -0.3
v -0.3 1 -0.3
v -0.4 1 -0.4
v -0.3 1 -0.4
v -0.4 1.1 0.2
v -0.3 1.1 0.2
v -0.4 1.1 0.1
v -0.3 1.1 0.1
v -0.4 1.1 -0.2
v -0.3 1.1 -0.2
v -0.4 1.1 -0.3
v -0.3 1.1 -0.3

# faces
f 5/1/1 3/1/1 2/1/1
f 6/1/1 3/1/1 5/1/1
f 7/5/1 2/5/1 1/5/1
f 7/1/1 5/1/1 2/1/1
f 8/5/1 6/5/1 5/5/1
f 8/1/1 5/1/1 7/1/1
f 9/1/1 3/1/1 6/1/1
f 9/5/1 6/5/1 8/5/1
f 10/5/1 4/5/1 3/5/1
f 10/1/1 3/1/1 9/1/1
f 11/5/1 8/5/1 7/5/1
f 11/5/1 9/5/1 8/5/1
f 11/5/1 10/5/1 9/5/1
f 11/5/1 7/5/1 1/5/1
f 12/5/1 4/5/1 10/5/1
f 12/5/1 10/5/1 11/5/1
f 16/5/1 14/5/1 13/5/1
f 17/6/1 15/6/1 14/6/1
f 17/5/1 14/5/1 16/5/1
f 18/6/1 15/6/1 17/6/1
f 23/2/1 20/2/1 19/2/1
f 24/2/1 23/2/1 19/2/1
f 27/2/1 22/2/1 21/2/1
f 28/2/1 24/2/1 19/2/1
f 29/3/1 25/3/1 24/3/1
f 29/2/1 24/2/1 28/2/1
f 30/3/1 25/3/1 29/3/1
f 31/3/1 25/3/1 30/3/1
f 32/3/1 27/3/1 26/3/1
f 33/3/1 27/3/1 32/3/1
f 34/2/1 22/2/1 27/2/1
f 34/3/1 27/3/1 33/3/1
f 35/2/1 22/2/1 34/2/1
f 36/3/1 30/3/1 29/3/1
f 37/3/1 30/3/1 36/3/1
f 38/3/1 34/3/1 33/3/1
f 39/3/1 34/3/1 38/3/1
f 44/6/1 41/6/1 40/6/1
f 45/6/1 41/6/1 44/6/1
f 46/6/1 43/6/1 42/6/1
f 47/6/1 43/6/1 46/6/1
f 48/5/1 45/5/1 44/5/1
f 49/5/1 47/5/1 46/5/1
f 50/5/1 48/5/1 44/5/1
f 50/2/1 49/2/1 48/2/1
f 51/5/1 47/5/1 49/5/1
f 51/2/1 49/2/1 50/2/1
f 52/5/1 50/5/1 44/5/1
f 52/5/1 51/5/1 50/5/1
f 53/5/1 47/5/1 51/5/1
f 53/5/1 51/5/1 52/5/1
f 54/5/1 52/5/1 44/5/1
f 55/5/1 52/5/1 54/5/1
f 56/5/1 47/5/1 53/5/1
f 57/5/1 47/5/1 56/5/1
f 62/6/1 59/6/1 58/6/1
f 63/6/1 59/6/1 62/6/1
f 64/6/1 61/6/1 60/6/1
f 65/6/1 61/6/1 64/6/1
f 66/5/1 63/5/1 62/5/1
f 67/5/1 63/5/1 66/5/1
f 68/5/1 65/5/1 64/5/1
f 69/5/1 65/5/1 68/5/1
f 70/2/2 71/2/2 76/2/2
f 71/3/2 72/3/2 77/3/2
f 76/2/2 71/2/2 77/2/2
f 77/3/2 72/3/2 78/3/2
f 78/3/2 72/3/2 79/3/2
f 73/3/2 74/3/2 80/3/2
f 80/3/2 74/3/2 81/3/2
f 74/2/2 75/2/2 82/2/2
f 81/3/2 74/3/2 82/3/2
f 82/2/2 75/2/2 83/2/2
f 77/3/2 78/3/2 84/3/2
f 84/3/2 78/3/2 85/3/2
f 81/3/2 82/3/2 86/3/2
f 86/3/2 82/3/2 87/3/2
f 88/6/2 89/6/2 92/6/2
f 92/6/2 89/6/2 93/6/2
f 90/6/2 91/6/2 94/6/2
f 94/6/2 91/6/2 95/6/2
f 92/5/2 93/5/2 96/5/2
f 96/5/2 93/5/2 97/5/2
f 94/5/2 95/5/2 98/5/2
f 98/5/2 95/5/2 99/5/2
f 100/6/2 101/6/2 104/6/2
f 104/6/2 101/6/2 105/6/2
f 102/6/2 103/6/2 106/6/2
f 106/6/2 103/6/2 107/6/2
f 104/5/2 105/5/2 108/5/2
f 106/5/2 107/5/2 109/5/2
f 104/5/2 108/5/2 110/5/2
f 108/2/2 109/2/2 110/2/2
f 109/5/2 107/5/2 111/5/2
f 110/2/2 109/2/2 111/2/2
f 104/5/2 110/5/2 112/5/2
f 110/5/2 111/5/2 112/5/2
f 111/5/2 107/5/2 113/5/2
f 112/5/2 111/5/2 113/5/2
f 104/5/2 112/5/2 114/5/2
f 114/5/2 112/5/2 115/5/2
f 113/5/2 107/5/2 116/5/2
f 116/5/2 107/5/2 117/5/2
f 118/5/2 119/5/2 120/5/2
f 120/5/2 119/5/2 121/5/2
f 118/5/2 120/5/2 122/5/2
f 122/5/2 120/5/2 123/5/2
f 121/5/2 119/5/2 124/5/2
f 124/5/2 119/5/2 125/5/2
f 118/5/2 122/5/2 126/5/2
f 122/6/2 123/6/2 127/6/2
f 126/5/2 122/5/2 127/5/2
f 127/6/2 123/6/2 128/6/2
f 124/6/2 125/6/2 129/6/2
f 125/5/2 119/5/2 130/5/2
f 129/6/2 125/6/2 130/6/2
f 130/5/2 119/5/2 131/5/2
f 132/6/2 133/6/2 134/6/2
f 134/6/2 133/6/2 135/6/2
f 140/2/3 137/2/3 136/2/3
f 141/2/3 137/2/3 140/2/3
f 142/2/3 137/2/3 141/2/3
f 143/6/3 139/6/3 138/6/3
f 144/5/3 140/5/3 139/5/3
f 144/6/3 139/6/3 143/6/3
f 144/5/3 141/5/3 140/5/3
f 145/5/3 141/5/3 144/5/3
f 146/5/3 141/5/3 145/5/3
f 147/5/3 141/5/3 146/5/3
f 148/5/3 141/5/3 147/5/3
f 149/6/3 148/6/3 147/6/3
f 149/5/3 147/5/3 146/5/3
f 150/6/3 148/6/3 149/6/3
f 151/5/3 150/5/3 149/5/3
f 151/6/3 148/6/3 150/6/3
f 152/6/3 148/6/3 151/6/3
f 153/5/3 151/5/3 149/5/3
f 153/5/3 152/5/3 151/5/3
f 154/6/3 148/6/3 152/6/3
f 154/5/3 152/5/3 153/5/3
f 155/5/3 149/5/3 146/5/3
f 155/5/3 153/5/3 149/5/3
f 156/6/3 154/6/3 153/6/3
f 156/5/3 153/5/3 155/5/3
f 159/2/3 146/2/3 145/2/3
f 160/5/3 155/5/3 146/5/3
f 160/2/3 146/2/3 159/2/3
f 161/6/3 156/6/3 155/6/3
f 161/5/3 155/5/3 160/5/3
f 162/6/3 148/6/3 154/6/3
f 162/6/3 156/6/3 161/6/3
f 162/6/3 154/6/3 156/6/3
f 163/6/3 158/6/3 157/6/3
f 164/5/3 161/5/3 160/5/3
f 164/6/3 158/6/3 163/6/3
f 164/5/3 159/5/3 158/5/3
f 164/5/3 162/5/3 161/5/3
f 164/5/3 160/5/3 159/5/3
f 165/5/3 162/5/3 164/5/3
f 168/5/3 167/5/3 166/5/3
f 170/5/3 168/5/3 166/5/3
f 170/5/3 169/5/3 168/5/3
f 171/5/3 169/5/3 170/5/3
f 172/5/3 170/5/3 166/5/3
f 172/6/3 171/6/3 170/6/3
f 173/5/3 169/5/3 171/5/3
f 173/6/3 171/6/3 172/6/3
f 174/5/3 169/5/3 173/5/3
f 177/5/3 172/5/3 166/5/3
f 178/5/3 172/5/3 177/5/3
f 179/3/3 176/3/3 175/3/3
f 180/3/3 176/3/3 179/3/3
f 183/5/3 182/5/3 181/5/3
f 184/5/3 182/5/3 183/5/3
f 188/6/3 186/6/3 185/6/3
f 188/6/3 187/6/3 186/6/3
f 189/6/3 187/6/3 188/6/3
f 192/3/3 191/3/3 190/3/3
f 193/3/3 191/3/3 192/3/3
f 196/3/3 195/3/3 194/3/3
f 197/3/3 195/3/3 196/3/3
f 201/6/3 199/6/3 198/6/3
f 202/5/3 200/5/3 199/5/3
f 202/6/3 199/6/3 201/6/3
f 203/5/3 200/5/3 202/5/3
f 207/6/3 205/6/3 204/6/3
f 208/5/3 206/5/3 205/5/3
f 208/6/3 205/6/3 207/6/3
f 209/5/3 206/5/3 208/5/3
f 210/6/4 211/6/4 213/6/4
f 211/5/4 212/5/4 214/5/4
f 213/6/4 211/6/4 214/6/4
f 214/5/4 212/5/4 215/5/4
f 216/6/4 217/6/4 219/6/4
f 217/5/4 218/5/4 220/5/4
f 219/6/4 217/6/4 220/6/4
f 220/5/4 218/5/4 221/5/4
f 222/3/4 223/3/4 224/3/4
f 224/3/4 223/3/4 225/3/4
f 226/3/4 227/3/4 228/3/4
f 228/3/4 227/3/4 229/3/4
f 230/6/4 231/6/4 233/6/4
f 231/6/4 232/6/4 233/6/4
f 233/6/4 232/6/4 234/6/4
f 235/5/4 236/5/4 237/5/4
f 235/5/4 237/5/4 239/5/4
f 237/6/4 238/6/4 240/6/4
f 239/5/4 237/5/4 240/5/4
f 235/5/4 239/5/4 241/5/4
f 239/6/4 240/6/4 241/6/4
f 240/6/4 238/6/4 242/6/4
f 241/6/4 240/6/4 242/6/4
f 235/5/4 241/5/4 245/5/4
f 245/5/4 241/5/4 246/5/4
f 243/3/4 244/3/4 247/3/4
f 247/3/4 244/3/4 248/3/4
f 249/5/4 250/5/4 251/5/4
f 251/5/4 250/5/4 252/5/4
f 253/2/4 254/2/4 257/2/4
f 257/2/4 254/2/4 258/2/4
f 258/2/4 254/2/4 259/2/4
f 255/6/4 256/6/4 260/6/4
f 256/5/4 257/5/4 261/5/4
f 260/6/4 256/6/4 261/6/4
f 257/5/4 258/5/4 261/5/4
f 261/5/4 258/5/4 262/5/4
f 262/5/4 258/5/4 263/5/4
f 263/5/4 258/5/4 264/5/4
f 264/5/4 258/5/4 265/5/4
f 265/5/4 258/5/4 266/5/4
f 266/5/4 258/5/4 267/5/4
f 263/5/4 264/5/4 268/5/4
f 264/6/4 265/6/4 268/6/4
f 265/5/4 266/5/4 269/5/4
f 268/6/4 265/6/4 269/6/4
f 266/6/4 267/6/4 270/6/4
f 269/5/4 266/5/4 270/5/4
f 268/5/4 269/5/4 271/5/4
f 263/5/4 268/5/4 271/5/4
f 269/6/4 270/6/4 272/6/4
f 271/5/4 269/5/4 272/5/4
f 262/2/4 263/2/4 275/2/4
f 263/5/4 271/5/4 276/5/4
f 275/2/4 263/2/4 276/2/4
f 271/6/4 272/6/4 277/6/4
f 276/5/4 271/5/4 277/5/4
f 270/6/4 267/6/4 278/6/4
f 277/6/4 272/6/4 278/6/4
f 272/6/4 270/6/4 278/6/4
f 273/6/4 274/6/4 279/6/4
f 276/5/4 277/5/4 280/5/4
f 279/6/4 274/6/4 280/6/4
f 274/5/4 275/5/4 280/5/4
f 277/5/4 278/5/4 280/5/4
f 275/5/4 276/5/4 280/5/4
f 280/5/4 278/5/4 281/5/4
f 286/6/5 283/6/5 282/6/5
f 287/6/5 283/6/5 286/6/5
f 288/6/5 285/6/5 284/6/5
f 289/6/5 285/6/5 288/6/5
f 294/6/5 291/6/5 290/6/5
f 295/6/5 291/6/5 294/6/5
f 296/6/5 293/6/5 292/6/5
f 297/6/5 293/6/5 296/6/5
f 301/2/5 299/2/5 298/2/5
f 302/2/5 299/2/5 301/2/5
f 304/2/5 301/2/5 300/2/5
f 304/2/5 303/2/5 302/2/5
f 304/2/5 302/2/5 301/2/5
f 305/2/5 303/2/5 304/2/5
f 306/2/5 303/2/5 305/2/5
f 307/2/5 303/2/5 306/2/5
f 308/2/5 306/2/5 305/2/5
f 309/2/5 306/2/5 308/2/5
f 314/5/5 311/5/5 310/5/5
f 315/5/5 311/5/5 314/5/5
f 316/1/5 315/1/5 314/1/5
f 317/5/5 311/5/5 315/5/5
f 317/1/5 315/1/5 316/1/5
f 318/5/5 317/5/5 316/5/5
f 319/5/5 311/5/5 317/5/5
f 319/5/5 317/5/5 318/5/5
f 320/5/5 313/5/5 312/5/5
f 321/5/5 313/5/5 320/5/5
f 324/6/5 323/6/5 322/6/5
f 325/6/5 323/6/5 324/6/5
f 328/2/5 327/2/5 326/2/5
f 329/2/5 327/2/5 328/2/5
f 332/2/5 331/2/5 330/2/5
f 333/2/5 331/2/5 332/2/5
f 334/5/6 335/5/6 336/5/6
f 334/5/6 336/5/6 337/5/6
f 337/5/6 336/5/6 338/5/6
f 339/5/6 340/5/6 345/5/6
f 341/5/6 342/5/6 346/5/6
f 340/6/6 341/6/6 348/6/6
f 346/5/6 347/5/6 349/5/6
f 348/6/6 341/6/6 349/6/6
f 341/5/6 346/5/6 349/5/6
f 349/5/6 347/5/6 350/5/6
f 350/5/6 347/5/6 351/5/6
f 343/5/6 344/5/6 352/5/6
f 352/5/6 344/5/6 353/5/6
f 345/5/6 340/5/6 354/5/6
f 340/6/6 348/6/6 355/6/6
f 354/5/6 340/5/6 355/5/6
f 348/5/6 349/5/6 356/5/6
f 355/6/6 348/6/6 356/6/6
f 349/5/6 350/5/6 356/5/6
f 350/6/6 351/6/6 357/6/6
f 343/5/6 352/5/6 359/5/6
f 352/6/6 353/6/6 360/6/6
f 359/5/6 352/5/6 360/5/6
f 353/5/6 354/5/6 361/5/6
f 360/6/6 353/6/6 361/6/6
f 354/5/6 355/5/6 361/5/6
f 355/5/6 356/5/6 361/5/6
f 361/5/6 356/5/6 362/5/6
f 356/5/6 350/5/6 363/5/6
f 362/5/6 356/5/6 363/5/6
f 363/5/6 350/5/6 364/5/6
f 350/6/6 357/6/6 365/6/6
f 357/6/6 358/6/6 365/6/6
f 365/6/6 358/6/6 366/6/6
f 362/5/6 363/5/6 367/5/6
f 363/6/6 364/6/6 368/6/6
f 367/5/6 363/5/6 368/5/6
f 364/5/6 350/5/6 369/5/6
f 350/6/6 365/6/6 369/6/6
f 369/6/6 365/6/6 370/6/6
f 359/6/6 360/6/6 371/6/6
f 360/6/6 361/6/6 371/6/6
f 371/6/6 361/6/6 372/6/6
f 362/5/6 367/5/6 373/5/6
f 369/5/6 370/5/6 374/5/6
f 364/5/6 369/5/6 374/5/6
f 374/5/6 370/5/6 375/5/6
f 373/5/6 367/5/6 376/5/6
f 367/6/6 368/6/6 377/6/6
f 376/5/6 367/5/6 377/5/6
f 368/6/6 364/6/6 378/6/6
f 377/6/6 368/6/6 378/6/6
f 364/5/6 374/5/6 378/5/6
f 378/5/6 374/5/6 379/5/6
f 380/2/6 381/2/6 382/2/6
f 382/2/6 381/2/6 383/2/6
f 384/3/6 385/3/6 386/3/6
f 386/3/6 385/3/6 387/3/6
f 388/3/6 389/3/6 390/3/6
f 390/3/6 389/3/6 391/3/6
f 392/2/6 393/2/6 394/2/6
f 394/2/6 393/2/6 395/2/6
f 396/3/6 397/3/6 398/3/6
f 398/3/6 397/3/6 399/3/6
f 400/3/6 401/3/6 402/3/6
f 402/3/6 401/3/6 403/3/6
